<?xml version="1.0" encoding="UTF-8"?>
<svg width="456px" height="120px" viewBox="0 0 456 120" version="1.1" xmlns="http://www.w3.org/2000/svg" xmlns:xlink="http://www.w3.org/1999/xlink">
    <title>logo--contify--cyan--default--dark</title>
    <defs>
        <polygon id="path-1" points="0 0 68.2878182 0 68.2878182 79.9996364 0 79.9996364"></polygon>
        <polygon id="path-3" points="0 0 16.2499091 0 16.2499091 16.2509091 0 16.2509091"></polygon>
        <rect id="path-5" x="0" y="0" width="312" height="88"></rect>
    </defs>
    <g id="Master" stroke="none" stroke-width="1" fill="none" fill-rule="evenodd">
        <g id="Full-logo" transform="translate(-288.000000, -776.000000)">
            <g id=".bx--row" transform="translate(16.000000, 760.000000)">
                <g id=".bx--col-sm-8" transform="translate(256.000000, 0.000000)">
                    <g id=".logo--contify--cyan--default--dark" transform="translate(16.000000, 16.000000)">
                        <g id="Roundel">
                            <g id=".cyan-70" fill="#00539A">
                                <path d="M120,60 C120,93.137 93.137,120 60,120 C26.863,120 0,93.137 0,60 C0,26.863 26.863,0 60,0 C93.137,0 120,26.863 120,60" id="Fill-1"></path>
                            </g>
                            <g id="&lt;figure&gt;" transform="translate(20.000000, 20.000000)">
                                <g id=".cyan-20">
                                    <mask id="mask-2" fill="white">
                                        <use xlink:href="#path-1"></use>
                                    </mask>
                                    <g id="Clip-2"></g>
                                    <path d="M53.9750909,59.1814545 C50.0505455,62.056 45.2187273,63.7496364 39.9996364,63.7496364 C26.906,63.7496364 16.2496364,53.0941818 16.2496364,39.9996364 C16.2496364,26.906 26.906,16.2496364 39.9996364,16.2496364 C44.2878182,16.2496364 48.3123636,17.3941818 51.7878182,19.3878182 C53.6250909,20.4378182 55.3005455,21.7250909 56.7878182,23.2123636 L68.2878182,11.7123636 C66.8123636,10.2378182 65.2250909,8.87509091 63.5314545,7.64418182 C56.9314545,2.83690909 48.8005455,-0.000363636364 39.9996364,-0.000363636364 C17.906,-0.000363636364 -0.000363636364,17.906 -0.000363636364,39.9996364 C-0.000363636364,62.0932727 17.906,79.9996364 39.9996364,79.9996364 C49.7250909,79.9996364 58.6314545,76.5378182 65.5623636,70.7687273 C66.506,69.9878182 67.4187273,69.1569091 68.2878182,68.2878182 L56.7878182,56.7869091 C55.9123636,57.6623636 54.9750909,58.4623636 53.9750909,59.1814545" id="Fill-1" fill="#BAE6FF" mask="url(#mask-2)"></path>
                                </g>
                                <g id=".cyan-10" transform="translate(63.750091, 31.874545)">
                                    <mask id="mask-4" fill="white">
                                        <use xlink:href="#path-3"></use>
                                    </mask>
                                    <g id="Clip-5"></g>
                                    <path d="M16.25,8.12545455 C16.25,12.6136364 12.6127273,16.2509091 8.12454545,16.2509091 C3.63727273,16.2509091 0,12.6136364 0,8.12545455 C0,3.63818182 3.63727273,0 8.12454545,0 C12.6127273,0 16.25,3.63818182 16.25,8.12545455" id="Fill-4" fill="#E5F6FF" mask="url(#mask-4)"></path>
                                </g>
                            </g>
                        </g>
                        <g id="$display-02-$text-01" transform="translate(144.000000, 24.000000)">
                            <mask id="mask-6" fill="white">
                                <use xlink:href="#path-5"></use>
                            </mask>
                            <g id="Rectangle"></g>
                            <path d="M35.703125,66.8984375 C54.296875,66.8984375 63.671875,53.7734375 65.5078125,46.1171875 L53.125,41.859375 C51.9140625,46.5078125 46.5234375,54.359375 35.859375,54.359375 C24.6484375,54.359375 16.875,45.375 16.875,34.59375 C16.875,23.890625 24.8828125,15.0234375 35.859375,15.0234375 C46.6015625,15.0234375 51.875,22.953125 52.8125,26.9375 L65.1171875,22.6796875 C62.9296875,14.1640625 53.59375,2.40625 36.015625,2.40625 C18.6328125,2.40625 3.4765625,16 3.4765625,34.75 C3.4765625,54.046875 18.59375,66.8984375 35.703125,66.8984375 Z M93.26625,66.9375 C106.156875,66.9375 116.664687,57.3671875 116.664687,44.515625 C116.664687,31.78125 106.313125,22.2890625 93.4225,22.2890625 C80.531875,22.2890625 70.0240625,31.9765625 70.0240625,44.75 C70.0240625,57.5625 80.375625,66.9375 93.26625,66.9375 Z M93.344375,55.4921875 C87.5240625,55.4921875 82.7975,51.078125 82.7975,44.59375 C82.7975,38.1484375 87.485,33.6953125 93.3053125,33.6953125 C99.1646875,33.6953125 103.89125,38.1484375 103.89125,44.59375 C103.89125,51.078125 99.20375,55.4921875 93.344375,55.4921875 Z M137.352812,66 L137.352812,42.2890625 C137.352812,37.9140625 139.774687,34.0078125 145.048125,34.0078125 C150.204375,34.0078125 152.47,37.5234375 152.47,42.2890625 L152.47,66 L164.930937,66 L164.930937,39.4375 C164.930937,30.6484375 160.321562,22.4453125 149.462187,22.4453125 C147.821562,22.4453125 140.673125,23.109375 137.391875,28.8515625 L137.274687,28.8515625 L137.274687,23.3046875 L124.930937,23.3046875 L124.930937,66 L137.352812,66 Z M202.064375,65.609375 L202.064375,55.453125 C199.837813,55.6875 199.48625,55.765625 197.689375,55.765625 C193.470625,55.765625 191.634688,53.6171875 191.634688,50.296875 L191.634688,34.0859375 L202.181563,34.0859375 L202.181563,23.3046875 L191.634688,23.3046875 L191.634688,9.90625 L179.369063,9.90625 L179.369063,23.3046875 L170.8925,23.3046875 L170.8925,34.0859375 L179.17375,34.0859375 L179.17375,50.921875 C179.17375,57.953125 181.400313,66.5859375 194.6425,66.5859375 C196.04875,66.5859375 199.212813,66.5078125 202.064375,65.609375 Z M217.049375,16.1171875 C221.424375,16.1171875 224.900937,12.640625 224.900937,8.3828125 C224.900937,4.0859375 221.424375,0.609375 217.049375,0.609375 C212.869687,0.609375 209.393125,4.0859375 209.393125,8.3828125 C209.393125,12.640625 212.869687,16.1171875 217.049375,16.1171875 Z M223.416562,66 L223.416562,23.3046875 L210.916562,23.3046875 L210.916562,66 L223.416562,66 Z M251.33125,66 L251.33125,33.890625 L262.346875,33.890625 L262.346875,23.3046875 L251.292188,23.3046875 L251.292188,18.3828125 C251.292188,13.65625 253.948438,11.3125 258.909375,11.3125 C259.221875,11.3125 261.409375,11.3515625 262.7375,11.7421875 L262.7375,1.546875 C260.198438,0.7265625 256.995313,0.609375 255.589063,0.609375 C243.010938,0.609375 238.870313,10.3359375 238.870313,19.046875 L238.870313,23.3046875 L230.667188,23.3046875 L230.667188,33.890625 L238.870313,33.890625 L238.870313,66 L251.33125,66 Z M285.105313,87.0546875 L311.042813,23.3046875 L298.19125,23.3046875 L288.66,47.71875 L277.956875,23.3046875 L264.245938,23.3046875 L282.214688,61.46875 L271.785,87.0546875 L285.105313,87.0546875 Z" id="Contify" fill="#161616" fill-rule="nonzero" mask="url(#mask-6)"></path>
                        </g>
                    </g>
                </g>
            </g>
        </g>
    </g>
</svg>